<svg width="1920" height="400" viewBox="0 0 1920 400" fill="none" xmlns="http://www.w3.org/2000/svg">
<rect width="1920" height="400" fill="#303030"/>
<path fill-rule="evenodd" clip-rule="evenodd" d="M60 20C57.7909 20 56 21.7909 56 24V52L28 52C25.7909 52 24 53.7909 24 56C24 58.2091 25.7909 60 28 60H56V88C56 90.2091 57.7909 92 60 92C62.2091 92 64 90.2091 64 88V60H92C94.2091 60 96 58.2091 96 56C96 53.7909 94.2091 52 92 52L64 52V24C64 21.7909 62.2091 20 60 20Z" fill="#383838"/>
<path fill-rule="evenodd" clip-rule="evenodd" d="M260 20C257.791 20 256 21.7909 256 24V52L228 52C225.791 52 224 53.7909 224 56C224 58.2091 225.791 60 228 60H256V88C256 90.2091 257.791 92 260 92C262.209 92 264 90.2091 264 88V60H292C294.209 60 296 58.2091 296 56C296 53.7909 294.209 52 292 52L264 52V24C264 21.7909 262.209 20 260 20Z" fill="#383838"/>
<path fill-rule="evenodd" clip-rule="evenodd" d="M460 20C457.791 20 456 21.7909 456 24V52L428 52C425.791 52 424 53.7909 424 56C424 58.2091 425.791 60 428 60H456V88C456 90.2091 457.791 92 460 92C462.209 92 464 90.2091 464 88V60H492C494.209 60 496 58.2091 496 56C496 53.7909 494.209 52 492 52L464 52V24C464 21.7909 462.209 20 460 20Z" fill="#383838"/>
<path fill-rule="evenodd" clip-rule="evenodd" d="M860 20C857.791 20 856 21.7909 856 24V52L828 52C825.791 52 824 53.7909 824 56C824 58.2091 825.791 60 828 60H856V88C856 90.2091 857.791 92 860 92C862.209 92 864 90.2091 864 88V60H892C894.209 60 896 58.2091 896 56C896 53.7909 894.209 52 892 52L864 52V24C864 21.7909 862.209 20 860 20Z" fill="#383838"/>
<path fill-rule="evenodd" clip-rule="evenodd" d="M1460 20C1457.79 20 1456 21.7909 1456 24V52L1428 52C1425.79 52 1424 53.7909 1424 56C1424 58.2091 1425.79 60 1428 60H1456V88C1456 90.2091 1457.79 92 1460 92C1462.21 92 1464 90.2091 1464 88V60H1492C1494.21 60 1496 58.2091 1496 56C1496 53.7909 1494.21 52 1492 52L1464 52V24C1464 21.7909 1462.21 20 1460 20Z" fill="#383838"/>
<path fill-rule="evenodd" clip-rule="evenodd" d="M660 20C657.791 20 656 21.7909 656 24V52L628 52C625.791 52 624 53.7909 624 56C624 58.2091 625.791 60 628 60H656V88C656 90.2091 657.791 92 660 92C662.209 92 664 90.2091 664 88V60H692C694.209 60 696 58.2091 696 56C696 53.7909 694.209 52 692 52L664 52V24C664 21.7909 662.209 20 660 20Z" fill="#383838"/>
<path fill-rule="evenodd" clip-rule="evenodd" d="M1260 20C1257.79 20 1256 21.7909 1256 24V52L1228 52C1225.79 52 1224 53.7909 1224 56C1224 58.2091 1225.79 60 1228 60H1256V88C1256 90.2091 1257.79 92 1260 92C1262.21 92 1264 90.2091 1264 88V60H1292C1294.21 60 1296 58.2091 1296 56C1296 53.7909 1294.21 52 1292 52L1264 52V24C1264 21.7909 1262.21 20 1260 20Z" fill="#383838"/>
<path fill-rule="evenodd" clip-rule="evenodd" d="M1060 20C1057.79 20 1056 21.7909 1056 24V52L1028 52C1025.79 52 1024 53.7909 1024 56C1024 58.2091 1025.79 60 1028 60H1056V88C1056 90.2091 1057.79 92 1060 92C1062.21 92 1064 90.2091 1064 88V60H1092C1094.21 60 1096 58.2091 1096 56C1096 53.7909 1094.21 52 1092 52L1064 52V24C1064 21.7909 1062.21 20 1060 20Z" fill="#383838"/>
<path fill-rule="evenodd" clip-rule="evenodd" d="M1660 20C1657.79 20 1656 21.7909 1656 24V52L1628 52C1625.79 52 1624 53.7909 1624 56C1624 58.2091 1625.79 60 1628 60H1656V88C1656 90.2091 1657.79 92 1660 92C1662.21 92 1664 90.2091 1664 88V60H1692C1694.21 60 1696 58.2091 1696 56C1696 53.7909 1694.21 52 1692 52L1664 52V24C1664 21.7909 1662.21 20 1660 20Z" fill="#383838"/>
<path fill-rule="evenodd" clip-rule="evenodd" d="M1860 20C1857.79 20 1856 21.7909 1856 24V52L1828 52C1825.79 52 1824 53.7909 1824 56C1824 58.2091 1825.79 60 1828 60H1856V88C1856 90.2091 1857.79 92 1860 92C1862.21 92 1864 90.2091 1864 88V60H1892C1894.21 60 1896 58.2091 1896 56C1896 53.7909 1894.21 52 1892 52L1864 52V24C1864 21.7909 1862.21 20 1860 20Z" fill="#383838"/>
<path fill-rule="evenodd" clip-rule="evenodd" d="M60 220C57.7909 220 56 221.791 56 224V252L28 252C25.7909 252 24 253.791 24 256C24 258.209 25.7909 260 28 260H56V288C56 290.209 57.7909 292 60 292C62.2091 292 64 290.209 64 288V260H92C94.2091 260 96 258.209 96 256C96 253.791 94.2091 252 92 252L64 252V224C64 221.791 62.2091 220 60 220Z" fill="#383838"/>
<path fill-rule="evenodd" clip-rule="evenodd" d="M260 220C257.791 220 256 221.791 256 224V252L228 252C225.791 252 224 253.791 224 256C224 258.209 225.791 260 228 260H256V288C256 290.209 257.791 292 260 292C262.209 292 264 290.209 264 288V260H292C294.209 260 296 258.209 296 256C296 253.791 294.209 252 292 252L264 252V224C264 221.791 262.209 220 260 220Z" fill="#383838"/>
<path fill-rule="evenodd" clip-rule="evenodd" d="M460 220C457.791 220 456 221.791 456 224V252L428 252C425.791 252 424 253.791 424 256C424 258.209 425.791 260 428 260H456V288C456 290.209 457.791 292 460 292C462.209 292 464 290.209 464 288V260H492C494.209 260 496 258.209 496 256C496 253.791 494.209 252 492 252L464 252V224C464 221.791 462.209 220 460 220Z" fill="#383838"/>
<path fill-rule="evenodd" clip-rule="evenodd" d="M860 220C857.791 220 856 221.791 856 224V252L828 252C825.791 252 824 253.791 824 256C824 258.209 825.791 260 828 260H856V288C856 290.209 857.791 292 860 292C862.209 292 864 290.209 864 288V260H892C894.209 260 896 258.209 896 256C896 253.791 894.209 252 892 252L864 252V224C864 221.791 862.209 220 860 220Z" fill="#383838"/>
<path fill-rule="evenodd" clip-rule="evenodd" d="M1460 220C1457.79 220 1456 221.791 1456 224V252L1428 252C1425.79 252 1424 253.791 1424 256C1424 258.209 1425.79 260 1428 260H1456V288C1456 290.209 1457.79 292 1460 292C1462.21 292 1464 290.209 1464 288V260H1492C1494.21 260 1496 258.209 1496 256C1496 253.791 1494.21 252 1492 252L1464 252V224C1464 221.791 1462.21 220 1460 220Z" fill="#383838"/>
<path fill-rule="evenodd" clip-rule="evenodd" d="M660 220C657.791 220 656 221.791 656 224V252L628 252C625.791 252 624 253.791 624 256C624 258.209 625.791 260 628 260H656V288C656 290.209 657.791 292 660 292C662.209 292 664 290.209 664 288V260H692C694.209 260 696 258.209 696 256C696 253.791 694.209 252 692 252L664 252V224C664 221.791 662.209 220 660 220Z" fill="#383838"/>
<path fill-rule="evenodd" clip-rule="evenodd" d="M1260 220C1257.79 220 1256 221.791 1256 224V252L1228 252C1225.79 252 1224 253.791 1224 256C1224 258.209 1225.79 260 1228 260H1256V288C1256 290.209 1257.79 292 1260 292C1262.21 292 1264 290.209 1264 288V260H1292C1294.21 260 1296 258.209 1296 256C1296 253.791 1294.21 252 1292 252L1264 252V224C1264 221.791 1262.21 220 1260 220Z" fill="#383838"/>
<path fill-rule="evenodd" clip-rule="evenodd" d="M1060 220C1057.79 220 1056 221.791 1056 224V252L1028 252C1025.79 252 1024 253.791 1024 256C1024 258.209 1025.79 260 1028 260H1056V288C1056 290.209 1057.79 292 1060 292C1062.21 292 1064 290.209 1064 288V260H1092C1094.21 260 1096 258.209 1096 256C1096 253.791 1094.21 252 1092 252L1064 252V224C1064 221.791 1062.21 220 1060 220Z" fill="#383838"/>
<path fill-rule="evenodd" clip-rule="evenodd" d="M1660 220C1657.79 220 1656 221.791 1656 224V252L1628 252C1625.79 252 1624 253.791 1624 256C1624 258.209 1625.79 260 1628 260H1656V288C1656 290.209 1657.79 292 1660 292C1662.21 292 1664 290.209 1664 288V260H1692C1694.21 260 1696 258.209 1696 256C1696 253.791 1694.21 252 1692 252L1664 252V224C1664 221.791 1662.21 220 1660 220Z" fill="#383838"/>
<path fill-rule="evenodd" clip-rule="evenodd" d="M1860 220C1857.79 220 1856 221.791 1856 224V252L1828 252C1825.79 252 1824 253.791 1824 256C1824 258.209 1825.79 260 1828 260H1856V288C1856 290.209 1857.79 292 1860 292C1862.21 292 1864 290.209 1864 288V260H1892C1894.21 260 1896 258.209 1896 256C1896 253.791 1894.21 252 1892 252L1864 252V224C1864 221.791 1862.21 220 1860 220Z" fill="#383838"/>
</svg>
