<svg width="272" height="144" viewBox="0 0 272 144" fill="none" xmlns="http://www.w3.org/2000/svg">
<path d="M272 0V144L79 129L0 0H272Z" fill="#7DFFFF"/>
<path d="M272 0V128H80L16 0H272Z" fill="#303030"/>
<path fill-rule="evenodd" clip-rule="evenodd" d="M92 33C89.7909 33 88 34.7909 88 37V91C88 93.2091 89.7909 95 92 95H132C134.209 95 136 93.2091 136 91V37C136 34.7909 134.209 33 132 33H92ZM96 37C93.7909 37 92 38.7909 92 41V73C92 75.2091 93.7909 77 96 77H128C130.209 77 132 75.2091 132 73V41C132 38.7909 130.209 37 128 37H96ZM92 83C92 81.8954 92.8954 81 94 81L130 81C131.105 81 132 81.8954 132 83C132 84.1046 131.105 85 130 85L94 85C92.8954 85 92 84.1046 92 83ZM94 87C92.8954 87 92 87.8954 92 89C92 90.1046 92.8954 91 94 91H110C111.105 91 112 90.1046 112 89C112 87.8954 111.105 87 110 87H94Z" fill="white"/>
<path fill-rule="evenodd" clip-rule="evenodd" d="M148 33C145.791 33 144 34.7909 144 37V91C144 93.2091 145.791 95 148 95H188C190.209 95 192 93.2091 192 91V37C192 34.7909 190.209 33 188 33H148ZM152 37C149.791 37 148 38.7909 148 41V73C148 75.2091 149.791 77 152 77H184C186.209 77 188 75.2091 188 73V41C188 38.7909 186.209 37 184 37H152ZM148 83C148 81.8954 148.895 81 150 81L186 81C187.105 81 188 81.8954 188 83C188 84.1046 187.105 85 186 85L150 85C148.895 85 148 84.1046 148 83ZM150 87C148.895 87 148 87.8954 148 89C148 90.1046 148.895 91 150 91H166C167.105 91 168 90.1046 168 89C168 87.8954 167.105 87 166 87H150Z" fill="white"/>
<path fill-rule="evenodd" clip-rule="evenodd" d="M204 33C201.791 33 200 34.7909 200 37V91C200 93.2091 201.791 95 204 95H244C246.209 95 248 93.2091 248 91V37C248 34.7909 246.209 33 244 33H204ZM208 37C205.791 37 204 38.7909 204 41V73C204 75.2091 205.791 77 208 77H240C242.209 77 244 75.2091 244 73V41C244 38.7909 242.209 37 240 37H208ZM204 83C204 81.8954 204.895 81 206 81L242 81C243.105 81 244 81.8954 244 83C244 84.1046 243.105 85 242 85L206 85C204.895 85 204 84.1046 204 83ZM206 87C204.895 87 204 87.8954 204 89C204 90.1046 204.895 91 206 91H222C223.105 91 224 90.1046 224 89C224 87.8954 223.105 87 222 87H206Z" fill="white"/>
<circle cx="112" cy="58" r="14" fill="white"/>
<path d="M168 46L180.99 70H155.01L168 46Z" fill="white"/>
<rect x="210.858" y="58.1421" width="20" height="20" transform="rotate(-45 210.858 58.1421)" fill="white"/>
</svg>
